G04 #@! TF.GenerationSoftware,KiCad,Pcbnew,(5.1.4-0-10_14)*
G04 #@! TF.CreationDate,2019-12-03T10:35:53-06:00*
G04 #@! TF.ProjectId,LM2592 Breakout Board,4c4d3235-3932-4204-9272-65616b6f7574,v0.1*
G04 #@! TF.SameCoordinates,Original*
G04 #@! TF.FileFunction,Copper,L1,Top*
G04 #@! TF.FilePolarity,Positive*
%FSLAX46Y46*%
G04 Gerber Fmt 4.6, Leading zero omitted, Abs format (unit mm)*
G04 Created by KiCad (PCBNEW (5.1.4-0-10_14)) date 2019-12-03 10:35:53*
%MOMM*%
%LPD*%
G04 APERTURE LIST*
%ADD10R,1.700000X1.700000*%
%ADD11O,1.700000X1.700000*%
%ADD12R,1.016000X2.692400*%
%ADD13R,10.464800X10.871200*%
%ADD14C,0.100000*%
%ADD15C,1.250000*%
%ADD16R,1.400000X2.100000*%
%ADD17C,0.762000*%
%ADD18C,0.381000*%
%ADD19C,0.254000*%
G04 APERTURE END LIST*
D10*
X173990000Y-96139000D03*
D11*
X176530000Y-96139000D03*
X179070000Y-96139000D03*
X181610000Y-96139000D03*
D12*
X174015400Y-86639400D03*
X175717200Y-86639400D03*
X177419000Y-86639400D03*
X179120800Y-86639400D03*
X180822600Y-86639400D03*
D13*
X177419000Y-78359000D03*
D14*
G36*
X174389504Y-91963204D02*
G01*
X174413773Y-91966804D01*
X174437571Y-91972765D01*
X174460671Y-91981030D01*
X174482849Y-91991520D01*
X174503893Y-92004133D01*
X174523598Y-92018747D01*
X174541777Y-92035223D01*
X174558253Y-92053402D01*
X174572867Y-92073107D01*
X174585480Y-92094151D01*
X174595970Y-92116329D01*
X174604235Y-92139429D01*
X174610196Y-92163227D01*
X174613796Y-92187496D01*
X174615000Y-92212000D01*
X174615000Y-93462000D01*
X174613796Y-93486504D01*
X174610196Y-93510773D01*
X174604235Y-93534571D01*
X174595970Y-93557671D01*
X174585480Y-93579849D01*
X174572867Y-93600893D01*
X174558253Y-93620598D01*
X174541777Y-93638777D01*
X174523598Y-93655253D01*
X174503893Y-93669867D01*
X174482849Y-93682480D01*
X174460671Y-93692970D01*
X174437571Y-93701235D01*
X174413773Y-93707196D01*
X174389504Y-93710796D01*
X174365000Y-93712000D01*
X173615000Y-93712000D01*
X173590496Y-93710796D01*
X173566227Y-93707196D01*
X173542429Y-93701235D01*
X173519329Y-93692970D01*
X173497151Y-93682480D01*
X173476107Y-93669867D01*
X173456402Y-93655253D01*
X173438223Y-93638777D01*
X173421747Y-93620598D01*
X173407133Y-93600893D01*
X173394520Y-93579849D01*
X173384030Y-93557671D01*
X173375765Y-93534571D01*
X173369804Y-93510773D01*
X173366204Y-93486504D01*
X173365000Y-93462000D01*
X173365000Y-92212000D01*
X173366204Y-92187496D01*
X173369804Y-92163227D01*
X173375765Y-92139429D01*
X173384030Y-92116329D01*
X173394520Y-92094151D01*
X173407133Y-92073107D01*
X173421747Y-92053402D01*
X173438223Y-92035223D01*
X173456402Y-92018747D01*
X173476107Y-92004133D01*
X173497151Y-91991520D01*
X173519329Y-91981030D01*
X173542429Y-91972765D01*
X173566227Y-91966804D01*
X173590496Y-91963204D01*
X173615000Y-91962000D01*
X174365000Y-91962000D01*
X174389504Y-91963204D01*
X174389504Y-91963204D01*
G37*
D15*
X173990000Y-92837000D03*
D14*
G36*
X171589504Y-91963204D02*
G01*
X171613773Y-91966804D01*
X171637571Y-91972765D01*
X171660671Y-91981030D01*
X171682849Y-91991520D01*
X171703893Y-92004133D01*
X171723598Y-92018747D01*
X171741777Y-92035223D01*
X171758253Y-92053402D01*
X171772867Y-92073107D01*
X171785480Y-92094151D01*
X171795970Y-92116329D01*
X171804235Y-92139429D01*
X171810196Y-92163227D01*
X171813796Y-92187496D01*
X171815000Y-92212000D01*
X171815000Y-93462000D01*
X171813796Y-93486504D01*
X171810196Y-93510773D01*
X171804235Y-93534571D01*
X171795970Y-93557671D01*
X171785480Y-93579849D01*
X171772867Y-93600893D01*
X171758253Y-93620598D01*
X171741777Y-93638777D01*
X171723598Y-93655253D01*
X171703893Y-93669867D01*
X171682849Y-93682480D01*
X171660671Y-93692970D01*
X171637571Y-93701235D01*
X171613773Y-93707196D01*
X171589504Y-93710796D01*
X171565000Y-93712000D01*
X170815000Y-93712000D01*
X170790496Y-93710796D01*
X170766227Y-93707196D01*
X170742429Y-93701235D01*
X170719329Y-93692970D01*
X170697151Y-93682480D01*
X170676107Y-93669867D01*
X170656402Y-93655253D01*
X170638223Y-93638777D01*
X170621747Y-93620598D01*
X170607133Y-93600893D01*
X170594520Y-93579849D01*
X170584030Y-93557671D01*
X170575765Y-93534571D01*
X170569804Y-93510773D01*
X170566204Y-93486504D01*
X170565000Y-93462000D01*
X170565000Y-92212000D01*
X170566204Y-92187496D01*
X170569804Y-92163227D01*
X170575765Y-92139429D01*
X170584030Y-92116329D01*
X170594520Y-92094151D01*
X170607133Y-92073107D01*
X170621747Y-92053402D01*
X170638223Y-92035223D01*
X170656402Y-92018747D01*
X170676107Y-92004133D01*
X170697151Y-91991520D01*
X170719329Y-91981030D01*
X170742429Y-91972765D01*
X170766227Y-91966804D01*
X170790496Y-91963204D01*
X170815000Y-91962000D01*
X171565000Y-91962000D01*
X171589504Y-91963204D01*
X171589504Y-91963204D01*
G37*
D15*
X171190000Y-92837000D03*
D14*
G36*
X171589504Y-89169204D02*
G01*
X171613773Y-89172804D01*
X171637571Y-89178765D01*
X171660671Y-89187030D01*
X171682849Y-89197520D01*
X171703893Y-89210133D01*
X171723598Y-89224747D01*
X171741777Y-89241223D01*
X171758253Y-89259402D01*
X171772867Y-89279107D01*
X171785480Y-89300151D01*
X171795970Y-89322329D01*
X171804235Y-89345429D01*
X171810196Y-89369227D01*
X171813796Y-89393496D01*
X171815000Y-89418000D01*
X171815000Y-90668000D01*
X171813796Y-90692504D01*
X171810196Y-90716773D01*
X171804235Y-90740571D01*
X171795970Y-90763671D01*
X171785480Y-90785849D01*
X171772867Y-90806893D01*
X171758253Y-90826598D01*
X171741777Y-90844777D01*
X171723598Y-90861253D01*
X171703893Y-90875867D01*
X171682849Y-90888480D01*
X171660671Y-90898970D01*
X171637571Y-90907235D01*
X171613773Y-90913196D01*
X171589504Y-90916796D01*
X171565000Y-90918000D01*
X170815000Y-90918000D01*
X170790496Y-90916796D01*
X170766227Y-90913196D01*
X170742429Y-90907235D01*
X170719329Y-90898970D01*
X170697151Y-90888480D01*
X170676107Y-90875867D01*
X170656402Y-90861253D01*
X170638223Y-90844777D01*
X170621747Y-90826598D01*
X170607133Y-90806893D01*
X170594520Y-90785849D01*
X170584030Y-90763671D01*
X170575765Y-90740571D01*
X170569804Y-90716773D01*
X170566204Y-90692504D01*
X170565000Y-90668000D01*
X170565000Y-89418000D01*
X170566204Y-89393496D01*
X170569804Y-89369227D01*
X170575765Y-89345429D01*
X170584030Y-89322329D01*
X170594520Y-89300151D01*
X170607133Y-89279107D01*
X170621747Y-89259402D01*
X170638223Y-89241223D01*
X170656402Y-89224747D01*
X170676107Y-89210133D01*
X170697151Y-89197520D01*
X170719329Y-89187030D01*
X170742429Y-89178765D01*
X170766227Y-89172804D01*
X170790496Y-89169204D01*
X170815000Y-89168000D01*
X171565000Y-89168000D01*
X171589504Y-89169204D01*
X171589504Y-89169204D01*
G37*
D15*
X171190000Y-90043000D03*
D14*
G36*
X174389504Y-89169204D02*
G01*
X174413773Y-89172804D01*
X174437571Y-89178765D01*
X174460671Y-89187030D01*
X174482849Y-89197520D01*
X174503893Y-89210133D01*
X174523598Y-89224747D01*
X174541777Y-89241223D01*
X174558253Y-89259402D01*
X174572867Y-89279107D01*
X174585480Y-89300151D01*
X174595970Y-89322329D01*
X174604235Y-89345429D01*
X174610196Y-89369227D01*
X174613796Y-89393496D01*
X174615000Y-89418000D01*
X174615000Y-90668000D01*
X174613796Y-90692504D01*
X174610196Y-90716773D01*
X174604235Y-90740571D01*
X174595970Y-90763671D01*
X174585480Y-90785849D01*
X174572867Y-90806893D01*
X174558253Y-90826598D01*
X174541777Y-90844777D01*
X174523598Y-90861253D01*
X174503893Y-90875867D01*
X174482849Y-90888480D01*
X174460671Y-90898970D01*
X174437571Y-90907235D01*
X174413773Y-90913196D01*
X174389504Y-90916796D01*
X174365000Y-90918000D01*
X173615000Y-90918000D01*
X173590496Y-90916796D01*
X173566227Y-90913196D01*
X173542429Y-90907235D01*
X173519329Y-90898970D01*
X173497151Y-90888480D01*
X173476107Y-90875867D01*
X173456402Y-90861253D01*
X173438223Y-90844777D01*
X173421747Y-90826598D01*
X173407133Y-90806893D01*
X173394520Y-90785849D01*
X173384030Y-90763671D01*
X173375765Y-90740571D01*
X173369804Y-90716773D01*
X173366204Y-90692504D01*
X173365000Y-90668000D01*
X173365000Y-89418000D01*
X173366204Y-89393496D01*
X173369804Y-89369227D01*
X173375765Y-89345429D01*
X173384030Y-89322329D01*
X173394520Y-89300151D01*
X173407133Y-89279107D01*
X173421747Y-89259402D01*
X173438223Y-89241223D01*
X173456402Y-89224747D01*
X173476107Y-89210133D01*
X173497151Y-89197520D01*
X173519329Y-89187030D01*
X173542429Y-89178765D01*
X173566227Y-89172804D01*
X173590496Y-89169204D01*
X173615000Y-89168000D01*
X174365000Y-89168000D01*
X174389504Y-89169204D01*
X174389504Y-89169204D01*
G37*
D15*
X173990000Y-90043000D03*
D16*
X177292000Y-91186000D03*
X181692000Y-91186000D03*
D17*
X174015400Y-86639400D02*
X174015400Y-90144600D01*
D18*
X174015400Y-90144600D02*
X173990000Y-90170000D01*
D17*
X173990000Y-90170000D02*
X173990000Y-96012000D01*
D18*
X179120800Y-88366600D02*
X179425600Y-88671400D01*
D17*
X179120800Y-86639400D02*
X179120800Y-88366600D01*
X179425600Y-88671400D02*
X179425600Y-93522800D01*
X179425600Y-93522800D02*
X179070000Y-93878400D01*
X179070000Y-93878400D02*
X179070000Y-96113600D01*
X175813200Y-89357200D02*
X177292000Y-90836000D01*
X177292000Y-90836000D02*
X177292000Y-93573600D01*
X177292000Y-93573600D02*
X176530000Y-94335600D01*
X176530000Y-94335600D02*
X176530000Y-95554800D01*
D18*
X175717200Y-89357200D02*
X175813200Y-89357200D01*
D17*
X175717200Y-86639400D02*
X175717200Y-89357200D01*
D19*
G36*
X184963201Y-97384000D02*
G01*
X182412637Y-97384000D01*
X182610269Y-97236588D01*
X182805178Y-97020355D01*
X182954157Y-96770252D01*
X183051481Y-96495891D01*
X182930814Y-96266000D01*
X181737000Y-96266000D01*
X181737000Y-96286000D01*
X181483000Y-96286000D01*
X181483000Y-96266000D01*
X181463000Y-96266000D01*
X181463000Y-96012000D01*
X181483000Y-96012000D01*
X181483000Y-94818845D01*
X181737000Y-94818845D01*
X181737000Y-96012000D01*
X182930814Y-96012000D01*
X183051481Y-95782109D01*
X182954157Y-95507748D01*
X182805178Y-95257645D01*
X182610269Y-95041412D01*
X182376920Y-94867359D01*
X182114099Y-94742175D01*
X181966890Y-94697524D01*
X181737000Y-94818845D01*
X181483000Y-94818845D01*
X181253110Y-94697524D01*
X181105901Y-94742175D01*
X180843080Y-94867359D01*
X180609731Y-95041412D01*
X180414822Y-95257645D01*
X180345201Y-95374523D01*
X180310706Y-95309986D01*
X180125134Y-95083866D01*
X180086000Y-95051750D01*
X180086000Y-94299240D01*
X180108727Y-94276513D01*
X180147496Y-94244696D01*
X180274460Y-94089990D01*
X180368802Y-93913487D01*
X180426898Y-93721971D01*
X180441600Y-93572702D01*
X180441600Y-93572695D01*
X180446514Y-93522801D01*
X180441600Y-93472907D01*
X180441600Y-92553334D01*
X180461463Y-92590494D01*
X180540815Y-92687185D01*
X180637506Y-92766537D01*
X180747820Y-92825502D01*
X180867518Y-92861812D01*
X180992000Y-92874072D01*
X181406250Y-92871000D01*
X181565000Y-92712250D01*
X181565000Y-91313000D01*
X181819000Y-91313000D01*
X181819000Y-92712250D01*
X181977750Y-92871000D01*
X182392000Y-92874072D01*
X182516482Y-92861812D01*
X182636180Y-92825502D01*
X182746494Y-92766537D01*
X182843185Y-92687185D01*
X182922537Y-92590494D01*
X182981502Y-92480180D01*
X183017812Y-92360482D01*
X183030072Y-92236000D01*
X183027000Y-91471750D01*
X182868250Y-91313000D01*
X181819000Y-91313000D01*
X181565000Y-91313000D01*
X181545000Y-91313000D01*
X181545000Y-91059000D01*
X181565000Y-91059000D01*
X181565000Y-89659750D01*
X181819000Y-89659750D01*
X181819000Y-91059000D01*
X182868250Y-91059000D01*
X183027000Y-90900250D01*
X183030072Y-90136000D01*
X183017812Y-90011518D01*
X182981502Y-89891820D01*
X182922537Y-89781506D01*
X182843185Y-89684815D01*
X182746494Y-89605463D01*
X182636180Y-89546498D01*
X182516482Y-89510188D01*
X182392000Y-89497928D01*
X181977750Y-89501000D01*
X181819000Y-89659750D01*
X181565000Y-89659750D01*
X181406250Y-89501000D01*
X180992000Y-89497928D01*
X180867518Y-89510188D01*
X180747820Y-89546498D01*
X180637506Y-89605463D01*
X180540815Y-89684815D01*
X180461463Y-89781506D01*
X180441600Y-89818666D01*
X180441600Y-88621917D01*
X180536850Y-88620600D01*
X180695600Y-88461850D01*
X180695600Y-86766400D01*
X180949600Y-86766400D01*
X180949600Y-88461850D01*
X181108350Y-88620600D01*
X181330600Y-88623672D01*
X181455082Y-88611412D01*
X181574780Y-88575102D01*
X181685094Y-88516137D01*
X181781785Y-88436785D01*
X181861137Y-88340094D01*
X181920102Y-88229780D01*
X181956412Y-88110082D01*
X181968672Y-87985600D01*
X181965600Y-86925150D01*
X181806850Y-86766400D01*
X180949600Y-86766400D01*
X180695600Y-86766400D01*
X180675600Y-86766400D01*
X180675600Y-86512400D01*
X180695600Y-86512400D01*
X180695600Y-84816950D01*
X180949600Y-84816950D01*
X180949600Y-86512400D01*
X181806850Y-86512400D01*
X181965600Y-86353650D01*
X181968672Y-85293200D01*
X181956412Y-85168718D01*
X181920102Y-85049020D01*
X181861137Y-84938706D01*
X181781785Y-84842015D01*
X181685094Y-84762663D01*
X181574780Y-84703698D01*
X181455082Y-84667388D01*
X181330600Y-84655128D01*
X181108350Y-84658200D01*
X180949600Y-84816950D01*
X180695600Y-84816950D01*
X180536850Y-84658200D01*
X180314600Y-84655128D01*
X180190118Y-84667388D01*
X180070420Y-84703698D01*
X179971700Y-84756466D01*
X179872980Y-84703698D01*
X179753282Y-84667388D01*
X179628800Y-84655128D01*
X178612800Y-84655128D01*
X178488318Y-84667388D01*
X178368620Y-84703698D01*
X178269900Y-84756466D01*
X178171180Y-84703698D01*
X178051482Y-84667388D01*
X177927000Y-84655128D01*
X177704750Y-84658200D01*
X177546000Y-84816950D01*
X177546000Y-86512400D01*
X177566000Y-86512400D01*
X177566000Y-86766400D01*
X177546000Y-86766400D01*
X177546000Y-88461850D01*
X177704750Y-88620600D01*
X177927000Y-88623672D01*
X178051482Y-88611412D01*
X178126450Y-88588671D01*
X178177599Y-88757287D01*
X178271941Y-88933790D01*
X178398905Y-89088496D01*
X178409600Y-89097273D01*
X178409600Y-89657253D01*
X178346494Y-89605463D01*
X178236180Y-89546498D01*
X178116482Y-89510188D01*
X177992000Y-89497928D01*
X177390769Y-89497928D01*
X176733200Y-88840360D01*
X176733200Y-88595238D01*
X176786518Y-88611412D01*
X176911000Y-88623672D01*
X177133250Y-88620600D01*
X177292000Y-88461850D01*
X177292000Y-86766400D01*
X177272000Y-86766400D01*
X177272000Y-86512400D01*
X177292000Y-86512400D01*
X177292000Y-84816950D01*
X177133250Y-84658200D01*
X176911000Y-84655128D01*
X176786518Y-84667388D01*
X176666820Y-84703698D01*
X176568100Y-84756466D01*
X176469380Y-84703698D01*
X176349682Y-84667388D01*
X176225200Y-84655128D01*
X175209200Y-84655128D01*
X175084718Y-84667388D01*
X174965020Y-84703698D01*
X174866300Y-84756466D01*
X174767580Y-84703698D01*
X174647882Y-84667388D01*
X174523400Y-84655128D01*
X173507400Y-84655128D01*
X173382918Y-84667388D01*
X173263220Y-84703698D01*
X173152906Y-84762663D01*
X173056215Y-84842015D01*
X172976863Y-84938706D01*
X172917898Y-85049020D01*
X172881588Y-85168718D01*
X172869328Y-85293200D01*
X172869328Y-87985600D01*
X172881588Y-88110082D01*
X172917898Y-88229780D01*
X172976863Y-88340094D01*
X172999400Y-88367556D01*
X172999401Y-88779892D01*
X172987038Y-88790038D01*
X172876595Y-88924614D01*
X172794528Y-89078150D01*
X172743992Y-89244746D01*
X172726928Y-89418000D01*
X172726928Y-90668000D01*
X172743992Y-90841254D01*
X172794528Y-91007850D01*
X172876595Y-91161386D01*
X172974000Y-91280075D01*
X172974000Y-91599925D01*
X172876595Y-91718614D01*
X172794528Y-91872150D01*
X172743992Y-92038746D01*
X172726928Y-92212000D01*
X172726928Y-93462000D01*
X172743992Y-93635254D01*
X172794528Y-93801850D01*
X172876595Y-93955386D01*
X172974001Y-94074076D01*
X172974001Y-94675782D01*
X172895820Y-94699498D01*
X172785506Y-94758463D01*
X172688815Y-94837815D01*
X172609463Y-94934506D01*
X172550498Y-95044820D01*
X172514188Y-95164518D01*
X172501928Y-95289000D01*
X172501928Y-96989000D01*
X172514188Y-97113482D01*
X172550498Y-97233180D01*
X172609463Y-97343494D01*
X172642705Y-97384000D01*
X169519200Y-97384000D01*
X169519200Y-93712000D01*
X169926928Y-93712000D01*
X169939188Y-93836482D01*
X169975498Y-93956180D01*
X170034463Y-94066494D01*
X170113815Y-94163185D01*
X170210506Y-94242537D01*
X170320820Y-94301502D01*
X170440518Y-94337812D01*
X170565000Y-94350072D01*
X170904250Y-94347000D01*
X171063000Y-94188250D01*
X171063000Y-92964000D01*
X171317000Y-92964000D01*
X171317000Y-94188250D01*
X171475750Y-94347000D01*
X171815000Y-94350072D01*
X171939482Y-94337812D01*
X172059180Y-94301502D01*
X172169494Y-94242537D01*
X172266185Y-94163185D01*
X172345537Y-94066494D01*
X172404502Y-93956180D01*
X172440812Y-93836482D01*
X172453072Y-93712000D01*
X172450000Y-93122750D01*
X172291250Y-92964000D01*
X171317000Y-92964000D01*
X171063000Y-92964000D01*
X170088750Y-92964000D01*
X169930000Y-93122750D01*
X169926928Y-93712000D01*
X169519200Y-93712000D01*
X169519200Y-90918000D01*
X169926928Y-90918000D01*
X169939188Y-91042482D01*
X169975498Y-91162180D01*
X170034463Y-91272494D01*
X170113815Y-91369185D01*
X170200104Y-91440000D01*
X170113815Y-91510815D01*
X170034463Y-91607506D01*
X169975498Y-91717820D01*
X169939188Y-91837518D01*
X169926928Y-91962000D01*
X169930000Y-92551250D01*
X170088750Y-92710000D01*
X171063000Y-92710000D01*
X171063000Y-91485750D01*
X171017250Y-91440000D01*
X171063000Y-91394250D01*
X171063000Y-90170000D01*
X171317000Y-90170000D01*
X171317000Y-91394250D01*
X171362750Y-91440000D01*
X171317000Y-91485750D01*
X171317000Y-92710000D01*
X172291250Y-92710000D01*
X172450000Y-92551250D01*
X172453072Y-91962000D01*
X172440812Y-91837518D01*
X172404502Y-91717820D01*
X172345537Y-91607506D01*
X172266185Y-91510815D01*
X172179896Y-91440000D01*
X172266185Y-91369185D01*
X172345537Y-91272494D01*
X172404502Y-91162180D01*
X172440812Y-91042482D01*
X172453072Y-90918000D01*
X172450000Y-90328750D01*
X172291250Y-90170000D01*
X171317000Y-90170000D01*
X171063000Y-90170000D01*
X170088750Y-90170000D01*
X169930000Y-90328750D01*
X169926928Y-90918000D01*
X169519200Y-90918000D01*
X169519200Y-89168000D01*
X169926928Y-89168000D01*
X169930000Y-89757250D01*
X170088750Y-89916000D01*
X171063000Y-89916000D01*
X171063000Y-88691750D01*
X171317000Y-88691750D01*
X171317000Y-89916000D01*
X172291250Y-89916000D01*
X172450000Y-89757250D01*
X172453072Y-89168000D01*
X172440812Y-89043518D01*
X172404502Y-88923820D01*
X172345537Y-88813506D01*
X172266185Y-88716815D01*
X172169494Y-88637463D01*
X172059180Y-88578498D01*
X171939482Y-88542188D01*
X171815000Y-88529928D01*
X171475750Y-88533000D01*
X171317000Y-88691750D01*
X171063000Y-88691750D01*
X170904250Y-88533000D01*
X170565000Y-88529928D01*
X170440518Y-88542188D01*
X170320820Y-88578498D01*
X170210506Y-88637463D01*
X170113815Y-88716815D01*
X170034463Y-88813506D01*
X169975498Y-88923820D01*
X169939188Y-89043518D01*
X169926928Y-89168000D01*
X169519200Y-89168000D01*
X169519200Y-83794600D01*
X171548528Y-83794600D01*
X171560788Y-83919082D01*
X171597098Y-84038780D01*
X171656063Y-84149094D01*
X171735415Y-84245785D01*
X171832106Y-84325137D01*
X171942420Y-84384102D01*
X172062118Y-84420412D01*
X172186600Y-84432672D01*
X177133250Y-84429600D01*
X177292000Y-84270850D01*
X177292000Y-78486000D01*
X177546000Y-78486000D01*
X177546000Y-84270850D01*
X177704750Y-84429600D01*
X182651400Y-84432672D01*
X182775882Y-84420412D01*
X182895580Y-84384102D01*
X183005894Y-84325137D01*
X183102585Y-84245785D01*
X183181937Y-84149094D01*
X183240902Y-84038780D01*
X183277212Y-83919082D01*
X183289472Y-83794600D01*
X183286400Y-78644750D01*
X183127650Y-78486000D01*
X177546000Y-78486000D01*
X177292000Y-78486000D01*
X171710350Y-78486000D01*
X171551600Y-78644750D01*
X171548528Y-83794600D01*
X169519200Y-83794600D01*
X169519200Y-72923400D01*
X171548528Y-72923400D01*
X171551600Y-78073250D01*
X171710350Y-78232000D01*
X177292000Y-78232000D01*
X177292000Y-72447150D01*
X177546000Y-72447150D01*
X177546000Y-78232000D01*
X183127650Y-78232000D01*
X183286400Y-78073250D01*
X183289472Y-72923400D01*
X183277212Y-72798918D01*
X183240902Y-72679220D01*
X183181937Y-72568906D01*
X183102585Y-72472215D01*
X183005894Y-72392863D01*
X182895580Y-72333898D01*
X182775882Y-72297588D01*
X182651400Y-72285328D01*
X177704750Y-72288400D01*
X177546000Y-72447150D01*
X177292000Y-72447150D01*
X177133250Y-72288400D01*
X172186600Y-72285328D01*
X172062118Y-72297588D01*
X171942420Y-72333898D01*
X171832106Y-72392863D01*
X171735415Y-72472215D01*
X171656063Y-72568906D01*
X171597098Y-72679220D01*
X171560788Y-72798918D01*
X171548528Y-72923400D01*
X169519200Y-72923400D01*
X169519200Y-71322800D01*
X184963200Y-71322800D01*
X184963201Y-97384000D01*
X184963201Y-97384000D01*
G37*
X184963201Y-97384000D02*
X182412637Y-97384000D01*
X182610269Y-97236588D01*
X182805178Y-97020355D01*
X182954157Y-96770252D01*
X183051481Y-96495891D01*
X182930814Y-96266000D01*
X181737000Y-96266000D01*
X181737000Y-96286000D01*
X181483000Y-96286000D01*
X181483000Y-96266000D01*
X181463000Y-96266000D01*
X181463000Y-96012000D01*
X181483000Y-96012000D01*
X181483000Y-94818845D01*
X181737000Y-94818845D01*
X181737000Y-96012000D01*
X182930814Y-96012000D01*
X183051481Y-95782109D01*
X182954157Y-95507748D01*
X182805178Y-95257645D01*
X182610269Y-95041412D01*
X182376920Y-94867359D01*
X182114099Y-94742175D01*
X181966890Y-94697524D01*
X181737000Y-94818845D01*
X181483000Y-94818845D01*
X181253110Y-94697524D01*
X181105901Y-94742175D01*
X180843080Y-94867359D01*
X180609731Y-95041412D01*
X180414822Y-95257645D01*
X180345201Y-95374523D01*
X180310706Y-95309986D01*
X180125134Y-95083866D01*
X180086000Y-95051750D01*
X180086000Y-94299240D01*
X180108727Y-94276513D01*
X180147496Y-94244696D01*
X180274460Y-94089990D01*
X180368802Y-93913487D01*
X180426898Y-93721971D01*
X180441600Y-93572702D01*
X180441600Y-93572695D01*
X180446514Y-93522801D01*
X180441600Y-93472907D01*
X180441600Y-92553334D01*
X180461463Y-92590494D01*
X180540815Y-92687185D01*
X180637506Y-92766537D01*
X180747820Y-92825502D01*
X180867518Y-92861812D01*
X180992000Y-92874072D01*
X181406250Y-92871000D01*
X181565000Y-92712250D01*
X181565000Y-91313000D01*
X181819000Y-91313000D01*
X181819000Y-92712250D01*
X181977750Y-92871000D01*
X182392000Y-92874072D01*
X182516482Y-92861812D01*
X182636180Y-92825502D01*
X182746494Y-92766537D01*
X182843185Y-92687185D01*
X182922537Y-92590494D01*
X182981502Y-92480180D01*
X183017812Y-92360482D01*
X183030072Y-92236000D01*
X183027000Y-91471750D01*
X182868250Y-91313000D01*
X181819000Y-91313000D01*
X181565000Y-91313000D01*
X181545000Y-91313000D01*
X181545000Y-91059000D01*
X181565000Y-91059000D01*
X181565000Y-89659750D01*
X181819000Y-89659750D01*
X181819000Y-91059000D01*
X182868250Y-91059000D01*
X183027000Y-90900250D01*
X183030072Y-90136000D01*
X183017812Y-90011518D01*
X182981502Y-89891820D01*
X182922537Y-89781506D01*
X182843185Y-89684815D01*
X182746494Y-89605463D01*
X182636180Y-89546498D01*
X182516482Y-89510188D01*
X182392000Y-89497928D01*
X181977750Y-89501000D01*
X181819000Y-89659750D01*
X181565000Y-89659750D01*
X181406250Y-89501000D01*
X180992000Y-89497928D01*
X180867518Y-89510188D01*
X180747820Y-89546498D01*
X180637506Y-89605463D01*
X180540815Y-89684815D01*
X180461463Y-89781506D01*
X180441600Y-89818666D01*
X180441600Y-88621917D01*
X180536850Y-88620600D01*
X180695600Y-88461850D01*
X180695600Y-86766400D01*
X180949600Y-86766400D01*
X180949600Y-88461850D01*
X181108350Y-88620600D01*
X181330600Y-88623672D01*
X181455082Y-88611412D01*
X181574780Y-88575102D01*
X181685094Y-88516137D01*
X181781785Y-88436785D01*
X181861137Y-88340094D01*
X181920102Y-88229780D01*
X181956412Y-88110082D01*
X181968672Y-87985600D01*
X181965600Y-86925150D01*
X181806850Y-86766400D01*
X180949600Y-86766400D01*
X180695600Y-86766400D01*
X180675600Y-86766400D01*
X180675600Y-86512400D01*
X180695600Y-86512400D01*
X180695600Y-84816950D01*
X180949600Y-84816950D01*
X180949600Y-86512400D01*
X181806850Y-86512400D01*
X181965600Y-86353650D01*
X181968672Y-85293200D01*
X181956412Y-85168718D01*
X181920102Y-85049020D01*
X181861137Y-84938706D01*
X181781785Y-84842015D01*
X181685094Y-84762663D01*
X181574780Y-84703698D01*
X181455082Y-84667388D01*
X181330600Y-84655128D01*
X181108350Y-84658200D01*
X180949600Y-84816950D01*
X180695600Y-84816950D01*
X180536850Y-84658200D01*
X180314600Y-84655128D01*
X180190118Y-84667388D01*
X180070420Y-84703698D01*
X179971700Y-84756466D01*
X179872980Y-84703698D01*
X179753282Y-84667388D01*
X179628800Y-84655128D01*
X178612800Y-84655128D01*
X178488318Y-84667388D01*
X178368620Y-84703698D01*
X178269900Y-84756466D01*
X178171180Y-84703698D01*
X178051482Y-84667388D01*
X177927000Y-84655128D01*
X177704750Y-84658200D01*
X177546000Y-84816950D01*
X177546000Y-86512400D01*
X177566000Y-86512400D01*
X177566000Y-86766400D01*
X177546000Y-86766400D01*
X177546000Y-88461850D01*
X177704750Y-88620600D01*
X177927000Y-88623672D01*
X178051482Y-88611412D01*
X178126450Y-88588671D01*
X178177599Y-88757287D01*
X178271941Y-88933790D01*
X178398905Y-89088496D01*
X178409600Y-89097273D01*
X178409600Y-89657253D01*
X178346494Y-89605463D01*
X178236180Y-89546498D01*
X178116482Y-89510188D01*
X177992000Y-89497928D01*
X177390769Y-89497928D01*
X176733200Y-88840360D01*
X176733200Y-88595238D01*
X176786518Y-88611412D01*
X176911000Y-88623672D01*
X177133250Y-88620600D01*
X177292000Y-88461850D01*
X177292000Y-86766400D01*
X177272000Y-86766400D01*
X177272000Y-86512400D01*
X177292000Y-86512400D01*
X177292000Y-84816950D01*
X177133250Y-84658200D01*
X176911000Y-84655128D01*
X176786518Y-84667388D01*
X176666820Y-84703698D01*
X176568100Y-84756466D01*
X176469380Y-84703698D01*
X176349682Y-84667388D01*
X176225200Y-84655128D01*
X175209200Y-84655128D01*
X175084718Y-84667388D01*
X174965020Y-84703698D01*
X174866300Y-84756466D01*
X174767580Y-84703698D01*
X174647882Y-84667388D01*
X174523400Y-84655128D01*
X173507400Y-84655128D01*
X173382918Y-84667388D01*
X173263220Y-84703698D01*
X173152906Y-84762663D01*
X173056215Y-84842015D01*
X172976863Y-84938706D01*
X172917898Y-85049020D01*
X172881588Y-85168718D01*
X172869328Y-85293200D01*
X172869328Y-87985600D01*
X172881588Y-88110082D01*
X172917898Y-88229780D01*
X172976863Y-88340094D01*
X172999400Y-88367556D01*
X172999401Y-88779892D01*
X172987038Y-88790038D01*
X172876595Y-88924614D01*
X172794528Y-89078150D01*
X172743992Y-89244746D01*
X172726928Y-89418000D01*
X172726928Y-90668000D01*
X172743992Y-90841254D01*
X172794528Y-91007850D01*
X172876595Y-91161386D01*
X172974000Y-91280075D01*
X172974000Y-91599925D01*
X172876595Y-91718614D01*
X172794528Y-91872150D01*
X172743992Y-92038746D01*
X172726928Y-92212000D01*
X172726928Y-93462000D01*
X172743992Y-93635254D01*
X172794528Y-93801850D01*
X172876595Y-93955386D01*
X172974001Y-94074076D01*
X172974001Y-94675782D01*
X172895820Y-94699498D01*
X172785506Y-94758463D01*
X172688815Y-94837815D01*
X172609463Y-94934506D01*
X172550498Y-95044820D01*
X172514188Y-95164518D01*
X172501928Y-95289000D01*
X172501928Y-96989000D01*
X172514188Y-97113482D01*
X172550498Y-97233180D01*
X172609463Y-97343494D01*
X172642705Y-97384000D01*
X169519200Y-97384000D01*
X169519200Y-93712000D01*
X169926928Y-93712000D01*
X169939188Y-93836482D01*
X169975498Y-93956180D01*
X170034463Y-94066494D01*
X170113815Y-94163185D01*
X170210506Y-94242537D01*
X170320820Y-94301502D01*
X170440518Y-94337812D01*
X170565000Y-94350072D01*
X170904250Y-94347000D01*
X171063000Y-94188250D01*
X171063000Y-92964000D01*
X171317000Y-92964000D01*
X171317000Y-94188250D01*
X171475750Y-94347000D01*
X171815000Y-94350072D01*
X171939482Y-94337812D01*
X172059180Y-94301502D01*
X172169494Y-94242537D01*
X172266185Y-94163185D01*
X172345537Y-94066494D01*
X172404502Y-93956180D01*
X172440812Y-93836482D01*
X172453072Y-93712000D01*
X172450000Y-93122750D01*
X172291250Y-92964000D01*
X171317000Y-92964000D01*
X171063000Y-92964000D01*
X170088750Y-92964000D01*
X169930000Y-93122750D01*
X169926928Y-93712000D01*
X169519200Y-93712000D01*
X169519200Y-90918000D01*
X169926928Y-90918000D01*
X169939188Y-91042482D01*
X169975498Y-91162180D01*
X170034463Y-91272494D01*
X170113815Y-91369185D01*
X170200104Y-91440000D01*
X170113815Y-91510815D01*
X170034463Y-91607506D01*
X169975498Y-91717820D01*
X169939188Y-91837518D01*
X169926928Y-91962000D01*
X169930000Y-92551250D01*
X170088750Y-92710000D01*
X171063000Y-92710000D01*
X171063000Y-91485750D01*
X171017250Y-91440000D01*
X171063000Y-91394250D01*
X171063000Y-90170000D01*
X171317000Y-90170000D01*
X171317000Y-91394250D01*
X171362750Y-91440000D01*
X171317000Y-91485750D01*
X171317000Y-92710000D01*
X172291250Y-92710000D01*
X172450000Y-92551250D01*
X172453072Y-91962000D01*
X172440812Y-91837518D01*
X172404502Y-91717820D01*
X172345537Y-91607506D01*
X172266185Y-91510815D01*
X172179896Y-91440000D01*
X172266185Y-91369185D01*
X172345537Y-91272494D01*
X172404502Y-91162180D01*
X172440812Y-91042482D01*
X172453072Y-90918000D01*
X172450000Y-90328750D01*
X172291250Y-90170000D01*
X171317000Y-90170000D01*
X171063000Y-90170000D01*
X170088750Y-90170000D01*
X169930000Y-90328750D01*
X169926928Y-90918000D01*
X169519200Y-90918000D01*
X169519200Y-89168000D01*
X169926928Y-89168000D01*
X169930000Y-89757250D01*
X170088750Y-89916000D01*
X171063000Y-89916000D01*
X171063000Y-88691750D01*
X171317000Y-88691750D01*
X171317000Y-89916000D01*
X172291250Y-89916000D01*
X172450000Y-89757250D01*
X172453072Y-89168000D01*
X172440812Y-89043518D01*
X172404502Y-88923820D01*
X172345537Y-88813506D01*
X172266185Y-88716815D01*
X172169494Y-88637463D01*
X172059180Y-88578498D01*
X171939482Y-88542188D01*
X171815000Y-88529928D01*
X171475750Y-88533000D01*
X171317000Y-88691750D01*
X171063000Y-88691750D01*
X170904250Y-88533000D01*
X170565000Y-88529928D01*
X170440518Y-88542188D01*
X170320820Y-88578498D01*
X170210506Y-88637463D01*
X170113815Y-88716815D01*
X170034463Y-88813506D01*
X169975498Y-88923820D01*
X169939188Y-89043518D01*
X169926928Y-89168000D01*
X169519200Y-89168000D01*
X169519200Y-83794600D01*
X171548528Y-83794600D01*
X171560788Y-83919082D01*
X171597098Y-84038780D01*
X171656063Y-84149094D01*
X171735415Y-84245785D01*
X171832106Y-84325137D01*
X171942420Y-84384102D01*
X172062118Y-84420412D01*
X172186600Y-84432672D01*
X177133250Y-84429600D01*
X177292000Y-84270850D01*
X177292000Y-78486000D01*
X177546000Y-78486000D01*
X177546000Y-84270850D01*
X177704750Y-84429600D01*
X182651400Y-84432672D01*
X182775882Y-84420412D01*
X182895580Y-84384102D01*
X183005894Y-84325137D01*
X183102585Y-84245785D01*
X183181937Y-84149094D01*
X183240902Y-84038780D01*
X183277212Y-83919082D01*
X183289472Y-83794600D01*
X183286400Y-78644750D01*
X183127650Y-78486000D01*
X177546000Y-78486000D01*
X177292000Y-78486000D01*
X171710350Y-78486000D01*
X171551600Y-78644750D01*
X171548528Y-83794600D01*
X169519200Y-83794600D01*
X169519200Y-72923400D01*
X171548528Y-72923400D01*
X171551600Y-78073250D01*
X171710350Y-78232000D01*
X177292000Y-78232000D01*
X177292000Y-72447150D01*
X177546000Y-72447150D01*
X177546000Y-78232000D01*
X183127650Y-78232000D01*
X183286400Y-78073250D01*
X183289472Y-72923400D01*
X183277212Y-72798918D01*
X183240902Y-72679220D01*
X183181937Y-72568906D01*
X183102585Y-72472215D01*
X183005894Y-72392863D01*
X182895580Y-72333898D01*
X182775882Y-72297588D01*
X182651400Y-72285328D01*
X177704750Y-72288400D01*
X177546000Y-72447150D01*
X177292000Y-72447150D01*
X177133250Y-72288400D01*
X172186600Y-72285328D01*
X172062118Y-72297588D01*
X171942420Y-72333898D01*
X171832106Y-72392863D01*
X171735415Y-72472215D01*
X171656063Y-72568906D01*
X171597098Y-72679220D01*
X171560788Y-72798918D01*
X171548528Y-72923400D01*
X169519200Y-72923400D01*
X169519200Y-71322800D01*
X184963200Y-71322800D01*
X184963201Y-97384000D01*
M02*
