G04 #@! TF.GenerationSoftware,KiCad,Pcbnew,(5.1.4-0-10_14)*
G04 #@! TF.CreationDate,2019-12-02T19:45:47-06:00*
G04 #@! TF.ProjectId,LM2592 Breakout Board,4c4d3235-3932-4204-9272-65616b6f7574,v0.1*
G04 #@! TF.SameCoordinates,Original*
G04 #@! TF.FileFunction,Copper,L1,Top*
G04 #@! TF.FilePolarity,Positive*
%FSLAX46Y46*%
G04 Gerber Fmt 4.6, Leading zero omitted, Abs format (unit mm)*
G04 Created by KiCad (PCBNEW (5.1.4-0-10_14)) date 2019-12-02 19:45:47*
%MOMM*%
%LPD*%
G04 APERTURE LIST*
%ADD10R,1.700000X1.700000*%
%ADD11O,1.700000X1.700000*%
%ADD12R,1.016000X2.692400*%
%ADD13R,10.464800X10.871200*%
%ADD14C,0.762000*%
%ADD15C,0.381000*%
%ADD16C,0.508000*%
G04 APERTURE END LIST*
D10*
X156210000Y-95250000D03*
D11*
X158750000Y-95250000D03*
X161290000Y-95250000D03*
X163830000Y-95250000D03*
D12*
X156464001Y-90500201D03*
X158165801Y-90500201D03*
X159867601Y-90500201D03*
X161569401Y-90500201D03*
X163271201Y-90500201D03*
D13*
X159867601Y-82219801D03*
D14*
X156464001Y-92227401D02*
X156210000Y-92481402D01*
X156464001Y-90500201D02*
X156464001Y-92227401D01*
X156210000Y-92481402D02*
X156210000Y-94996000D01*
X161569401Y-90500201D02*
X161569401Y-92811599D01*
D15*
X161569401Y-92811599D02*
X161290000Y-93091000D01*
D14*
X161290000Y-93091000D02*
X161290000Y-94615000D01*
X158165801Y-90500201D02*
X158165801Y-92760801D01*
X158165801Y-92760801D02*
X158750000Y-93345000D01*
X158750000Y-93345000D02*
X158750000Y-94869000D01*
D16*
G36*
X166853000Y-97003000D02*
G01*
X153187000Y-97003000D01*
X153187000Y-87655401D01*
X153741900Y-87655401D01*
X153759065Y-87829675D01*
X153809898Y-87997252D01*
X153892448Y-88151692D01*
X154003542Y-88287060D01*
X154138910Y-88398154D01*
X154293350Y-88480704D01*
X154460927Y-88531537D01*
X154635201Y-88548702D01*
X155493323Y-88547956D01*
X155414579Y-88612579D01*
X155319356Y-88728609D01*
X155248599Y-88860986D01*
X155205027Y-89004623D01*
X155190315Y-89154001D01*
X155190315Y-91846401D01*
X155200128Y-91946034D01*
X155148897Y-92041880D01*
X155083539Y-92257336D01*
X155067000Y-92425257D01*
X155067000Y-92425263D01*
X155061471Y-92481402D01*
X155067000Y-92537541D01*
X155067000Y-93692593D01*
X155066985Y-93692598D01*
X154934608Y-93763355D01*
X154818578Y-93858578D01*
X154723355Y-93974608D01*
X154652598Y-94106985D01*
X154609026Y-94250622D01*
X154594314Y-94400000D01*
X154594314Y-96100000D01*
X154609026Y-96249378D01*
X154652598Y-96393015D01*
X154723355Y-96525392D01*
X154818578Y-96641422D01*
X154934608Y-96736645D01*
X155066985Y-96807402D01*
X155210622Y-96850974D01*
X155360000Y-96865686D01*
X157060000Y-96865686D01*
X157209378Y-96850974D01*
X157353015Y-96807402D01*
X157485392Y-96736645D01*
X157601422Y-96641422D01*
X157696645Y-96525392D01*
X157716896Y-96487506D01*
X157850088Y-96596814D01*
X158130130Y-96746499D01*
X158433993Y-96838675D01*
X158670815Y-96862000D01*
X158829185Y-96862000D01*
X159066007Y-96838675D01*
X159369870Y-96746499D01*
X159649912Y-96596814D01*
X159895371Y-96395371D01*
X160020000Y-96243510D01*
X160144629Y-96395371D01*
X160390088Y-96596814D01*
X160670130Y-96746499D01*
X160973993Y-96838675D01*
X161210815Y-96862000D01*
X161369185Y-96862000D01*
X161606007Y-96838675D01*
X161909870Y-96746499D01*
X162189912Y-96596814D01*
X162435371Y-96395371D01*
X162483289Y-96336982D01*
X162596968Y-96476278D01*
X162859895Y-96693268D01*
X163160103Y-96854794D01*
X163486055Y-96954649D01*
X163495424Y-96956511D01*
X163766500Y-96765420D01*
X163766500Y-95313500D01*
X163893500Y-95313500D01*
X163893500Y-96765420D01*
X164164576Y-96956511D01*
X164173945Y-96954649D01*
X164499897Y-96854794D01*
X164800105Y-96693268D01*
X165063032Y-96476278D01*
X165278575Y-96212163D01*
X165438450Y-95911072D01*
X165536513Y-95584577D01*
X165345592Y-95313500D01*
X163893500Y-95313500D01*
X163766500Y-95313500D01*
X163746500Y-95313500D01*
X163746500Y-95186500D01*
X163766500Y-95186500D01*
X163766500Y-93734580D01*
X163893500Y-93734580D01*
X163893500Y-95186500D01*
X165345592Y-95186500D01*
X165536513Y-94915423D01*
X165438450Y-94588928D01*
X165278575Y-94287837D01*
X165063032Y-94023722D01*
X164800105Y-93806732D01*
X164499897Y-93645206D01*
X164173945Y-93545351D01*
X164164576Y-93543489D01*
X163893500Y-93734580D01*
X163766500Y-93734580D01*
X163495424Y-93543489D01*
X163486055Y-93545351D01*
X163160103Y-93645206D01*
X162859895Y-93806732D01*
X162596968Y-94023722D01*
X162483289Y-94163018D01*
X162435371Y-94104629D01*
X162433000Y-94102683D01*
X162433000Y-93561021D01*
X162524369Y-93449688D01*
X162630504Y-93251122D01*
X162695862Y-93035666D01*
X162712401Y-92867745D01*
X162712401Y-92734698D01*
X162763201Y-92739702D01*
X162985451Y-92735401D01*
X163207701Y-92513151D01*
X163207701Y-90563701D01*
X163334701Y-90563701D01*
X163334701Y-92513151D01*
X163556951Y-92735401D01*
X163779201Y-92739702D01*
X163953475Y-92722537D01*
X164121052Y-92671704D01*
X164275492Y-92589154D01*
X164410860Y-92478060D01*
X164521954Y-92342692D01*
X164604504Y-92188252D01*
X164655337Y-92020675D01*
X164672502Y-91846401D01*
X164668201Y-90785951D01*
X164445951Y-90563701D01*
X163334701Y-90563701D01*
X163207701Y-90563701D01*
X163187701Y-90563701D01*
X163187701Y-90436701D01*
X163207701Y-90436701D01*
X163207701Y-90416701D01*
X163334701Y-90416701D01*
X163334701Y-90436701D01*
X164445951Y-90436701D01*
X164668201Y-90214451D01*
X164672502Y-89154001D01*
X164655337Y-88979727D01*
X164604504Y-88812150D01*
X164521954Y-88657710D01*
X164432017Y-88548121D01*
X165100001Y-88548702D01*
X165274275Y-88531537D01*
X165441852Y-88480704D01*
X165596292Y-88398154D01*
X165731660Y-88287060D01*
X165842754Y-88151692D01*
X165925304Y-87997252D01*
X165976137Y-87829675D01*
X165993302Y-87655401D01*
X165989001Y-82505551D01*
X165766751Y-82283301D01*
X159931101Y-82283301D01*
X159931101Y-88322151D01*
X160013651Y-88404701D01*
X159931101Y-88487251D01*
X159931101Y-90436701D01*
X159951101Y-90436701D01*
X159951101Y-90563701D01*
X159931101Y-90563701D01*
X159931101Y-92513151D01*
X160153351Y-92735401D01*
X160203147Y-92736365D01*
X160163539Y-92866934D01*
X160147000Y-93034855D01*
X160147000Y-94102683D01*
X160144629Y-94104629D01*
X160020000Y-94256490D01*
X159895371Y-94104629D01*
X159893000Y-94102683D01*
X159893000Y-93401138D01*
X159898529Y-93344999D01*
X159893000Y-93288860D01*
X159893000Y-93288854D01*
X159876461Y-93120933D01*
X159876024Y-93119490D01*
X159835186Y-92984868D01*
X159811103Y-92905477D01*
X159704968Y-92706911D01*
X159662314Y-92654938D01*
X159804101Y-92513151D01*
X159804101Y-90563701D01*
X159784101Y-90563701D01*
X159784101Y-90436701D01*
X159804101Y-90436701D01*
X159804101Y-88487251D01*
X159721551Y-88404701D01*
X159804101Y-88322151D01*
X159804101Y-82283301D01*
X153968451Y-82283301D01*
X153746201Y-82505551D01*
X153741900Y-87655401D01*
X153187000Y-87655401D01*
X153187000Y-76784201D01*
X153741900Y-76784201D01*
X153746201Y-81934051D01*
X153968451Y-82156301D01*
X159804101Y-82156301D01*
X159804101Y-76117451D01*
X159931101Y-76117451D01*
X159931101Y-82156301D01*
X165766751Y-82156301D01*
X165989001Y-81934051D01*
X165993302Y-76784201D01*
X165976137Y-76609927D01*
X165925304Y-76442350D01*
X165842754Y-76287910D01*
X165731660Y-76152542D01*
X165596292Y-76041448D01*
X165441852Y-75958898D01*
X165274275Y-75908065D01*
X165100001Y-75890900D01*
X160153351Y-75895201D01*
X159931101Y-76117451D01*
X159804101Y-76117451D01*
X159581851Y-75895201D01*
X154635201Y-75890900D01*
X154460927Y-75908065D01*
X154293350Y-75958898D01*
X154138910Y-76041448D01*
X154003542Y-76152542D01*
X153892448Y-76287910D01*
X153809898Y-76442350D01*
X153759065Y-76609927D01*
X153741900Y-76784201D01*
X153187000Y-76784201D01*
X153187000Y-75717000D01*
X166853001Y-75717000D01*
X166853000Y-97003000D01*
X166853000Y-97003000D01*
G37*
X166853000Y-97003000D02*
X153187000Y-97003000D01*
X153187000Y-87655401D01*
X153741900Y-87655401D01*
X153759065Y-87829675D01*
X153809898Y-87997252D01*
X153892448Y-88151692D01*
X154003542Y-88287060D01*
X154138910Y-88398154D01*
X154293350Y-88480704D01*
X154460927Y-88531537D01*
X154635201Y-88548702D01*
X155493323Y-88547956D01*
X155414579Y-88612579D01*
X155319356Y-88728609D01*
X155248599Y-88860986D01*
X155205027Y-89004623D01*
X155190315Y-89154001D01*
X155190315Y-91846401D01*
X155200128Y-91946034D01*
X155148897Y-92041880D01*
X155083539Y-92257336D01*
X155067000Y-92425257D01*
X155067000Y-92425263D01*
X155061471Y-92481402D01*
X155067000Y-92537541D01*
X155067000Y-93692593D01*
X155066985Y-93692598D01*
X154934608Y-93763355D01*
X154818578Y-93858578D01*
X154723355Y-93974608D01*
X154652598Y-94106985D01*
X154609026Y-94250622D01*
X154594314Y-94400000D01*
X154594314Y-96100000D01*
X154609026Y-96249378D01*
X154652598Y-96393015D01*
X154723355Y-96525392D01*
X154818578Y-96641422D01*
X154934608Y-96736645D01*
X155066985Y-96807402D01*
X155210622Y-96850974D01*
X155360000Y-96865686D01*
X157060000Y-96865686D01*
X157209378Y-96850974D01*
X157353015Y-96807402D01*
X157485392Y-96736645D01*
X157601422Y-96641422D01*
X157696645Y-96525392D01*
X157716896Y-96487506D01*
X157850088Y-96596814D01*
X158130130Y-96746499D01*
X158433993Y-96838675D01*
X158670815Y-96862000D01*
X158829185Y-96862000D01*
X159066007Y-96838675D01*
X159369870Y-96746499D01*
X159649912Y-96596814D01*
X159895371Y-96395371D01*
X160020000Y-96243510D01*
X160144629Y-96395371D01*
X160390088Y-96596814D01*
X160670130Y-96746499D01*
X160973993Y-96838675D01*
X161210815Y-96862000D01*
X161369185Y-96862000D01*
X161606007Y-96838675D01*
X161909870Y-96746499D01*
X162189912Y-96596814D01*
X162435371Y-96395371D01*
X162483289Y-96336982D01*
X162596968Y-96476278D01*
X162859895Y-96693268D01*
X163160103Y-96854794D01*
X163486055Y-96954649D01*
X163495424Y-96956511D01*
X163766500Y-96765420D01*
X163766500Y-95313500D01*
X163893500Y-95313500D01*
X163893500Y-96765420D01*
X164164576Y-96956511D01*
X164173945Y-96954649D01*
X164499897Y-96854794D01*
X164800105Y-96693268D01*
X165063032Y-96476278D01*
X165278575Y-96212163D01*
X165438450Y-95911072D01*
X165536513Y-95584577D01*
X165345592Y-95313500D01*
X163893500Y-95313500D01*
X163766500Y-95313500D01*
X163746500Y-95313500D01*
X163746500Y-95186500D01*
X163766500Y-95186500D01*
X163766500Y-93734580D01*
X163893500Y-93734580D01*
X163893500Y-95186500D01*
X165345592Y-95186500D01*
X165536513Y-94915423D01*
X165438450Y-94588928D01*
X165278575Y-94287837D01*
X165063032Y-94023722D01*
X164800105Y-93806732D01*
X164499897Y-93645206D01*
X164173945Y-93545351D01*
X164164576Y-93543489D01*
X163893500Y-93734580D01*
X163766500Y-93734580D01*
X163495424Y-93543489D01*
X163486055Y-93545351D01*
X163160103Y-93645206D01*
X162859895Y-93806732D01*
X162596968Y-94023722D01*
X162483289Y-94163018D01*
X162435371Y-94104629D01*
X162433000Y-94102683D01*
X162433000Y-93561021D01*
X162524369Y-93449688D01*
X162630504Y-93251122D01*
X162695862Y-93035666D01*
X162712401Y-92867745D01*
X162712401Y-92734698D01*
X162763201Y-92739702D01*
X162985451Y-92735401D01*
X163207701Y-92513151D01*
X163207701Y-90563701D01*
X163334701Y-90563701D01*
X163334701Y-92513151D01*
X163556951Y-92735401D01*
X163779201Y-92739702D01*
X163953475Y-92722537D01*
X164121052Y-92671704D01*
X164275492Y-92589154D01*
X164410860Y-92478060D01*
X164521954Y-92342692D01*
X164604504Y-92188252D01*
X164655337Y-92020675D01*
X164672502Y-91846401D01*
X164668201Y-90785951D01*
X164445951Y-90563701D01*
X163334701Y-90563701D01*
X163207701Y-90563701D01*
X163187701Y-90563701D01*
X163187701Y-90436701D01*
X163207701Y-90436701D01*
X163207701Y-90416701D01*
X163334701Y-90416701D01*
X163334701Y-90436701D01*
X164445951Y-90436701D01*
X164668201Y-90214451D01*
X164672502Y-89154001D01*
X164655337Y-88979727D01*
X164604504Y-88812150D01*
X164521954Y-88657710D01*
X164432017Y-88548121D01*
X165100001Y-88548702D01*
X165274275Y-88531537D01*
X165441852Y-88480704D01*
X165596292Y-88398154D01*
X165731660Y-88287060D01*
X165842754Y-88151692D01*
X165925304Y-87997252D01*
X165976137Y-87829675D01*
X165993302Y-87655401D01*
X165989001Y-82505551D01*
X165766751Y-82283301D01*
X159931101Y-82283301D01*
X159931101Y-88322151D01*
X160013651Y-88404701D01*
X159931101Y-88487251D01*
X159931101Y-90436701D01*
X159951101Y-90436701D01*
X159951101Y-90563701D01*
X159931101Y-90563701D01*
X159931101Y-92513151D01*
X160153351Y-92735401D01*
X160203147Y-92736365D01*
X160163539Y-92866934D01*
X160147000Y-93034855D01*
X160147000Y-94102683D01*
X160144629Y-94104629D01*
X160020000Y-94256490D01*
X159895371Y-94104629D01*
X159893000Y-94102683D01*
X159893000Y-93401138D01*
X159898529Y-93344999D01*
X159893000Y-93288860D01*
X159893000Y-93288854D01*
X159876461Y-93120933D01*
X159876024Y-93119490D01*
X159835186Y-92984868D01*
X159811103Y-92905477D01*
X159704968Y-92706911D01*
X159662314Y-92654938D01*
X159804101Y-92513151D01*
X159804101Y-90563701D01*
X159784101Y-90563701D01*
X159784101Y-90436701D01*
X159804101Y-90436701D01*
X159804101Y-88487251D01*
X159721551Y-88404701D01*
X159804101Y-88322151D01*
X159804101Y-82283301D01*
X153968451Y-82283301D01*
X153746201Y-82505551D01*
X153741900Y-87655401D01*
X153187000Y-87655401D01*
X153187000Y-76784201D01*
X153741900Y-76784201D01*
X153746201Y-81934051D01*
X153968451Y-82156301D01*
X159804101Y-82156301D01*
X159804101Y-76117451D01*
X159931101Y-76117451D01*
X159931101Y-82156301D01*
X165766751Y-82156301D01*
X165989001Y-81934051D01*
X165993302Y-76784201D01*
X165976137Y-76609927D01*
X165925304Y-76442350D01*
X165842754Y-76287910D01*
X165731660Y-76152542D01*
X165596292Y-76041448D01*
X165441852Y-75958898D01*
X165274275Y-75908065D01*
X165100001Y-75890900D01*
X160153351Y-75895201D01*
X159931101Y-76117451D01*
X159804101Y-76117451D01*
X159581851Y-75895201D01*
X154635201Y-75890900D01*
X154460927Y-75908065D01*
X154293350Y-75958898D01*
X154138910Y-76041448D01*
X154003542Y-76152542D01*
X153892448Y-76287910D01*
X153809898Y-76442350D01*
X153759065Y-76609927D01*
X153741900Y-76784201D01*
X153187000Y-76784201D01*
X153187000Y-75717000D01*
X166853001Y-75717000D01*
X166853000Y-97003000D01*
M02*
